<svg width="23" height="23" viewBox="0 0 23 23" fill="none" xmlns="http://www.w3.org/2000/svg">
<path d="M18.1125 6.70834C18.9793 8.14697 19.3496 9.83043 19.1667 11.5V12.4583C19.1655 13.4673 19.4299 14.4589 19.9333 15.3333M7.66663 10.5417C7.66663 9.52501 8.0705 8.54999 8.78939 7.8311C9.50828 7.11221 10.4833 6.70834 11.5 6.70834C12.5166 6.70834 13.4916 7.11221 14.2105 7.8311C14.9294 8.54999 15.3333 9.52501 15.3333 10.5417V11.5C15.3333 13.5736 16.0058 15.5912 17.25 17.25M11.5 10.5417V12.4583C11.4969 15.1986 12.333 17.8741 13.8958 20.125M7.66663 14.375C7.90114 16.3778 8.48498 18.3239 9.39163 20.125M4.69579 18.2083C4.04916 16.0332 3.75791 13.768 3.83329 11.5V10.5417C3.82962 9.19412 4.18119 7.8694 4.85258 6.70101C5.52397 5.53261 6.49146 4.56182 7.65756 3.88646C8.82366 3.21109 10.1472 2.85501 11.4947 2.8541C12.8423 2.85318 14.1663 3.20747 15.3333 3.88125" stroke="#354052" stroke-width="2" stroke-linecap="round" stroke-linejoin="round"/>
</svg>
