<svg width="17" height="17" viewBox="0 0 17 17" fill="none" xmlns="http://www.w3.org/2000/svg">
<g clip-path="url(#clip0_4_49)">
<path d="M6.07148 6.67858C7.74806 6.67858 9.1072 5.31944 9.1072 3.64286C9.1072 1.96629 7.74806 0.607147 6.07148 0.607147C4.3949 0.607147 3.03577 1.96629 3.03577 3.64286C3.03577 5.31944 4.3949 6.67858 6.07148 6.67858Z" stroke="black" stroke-linecap="round" stroke-linejoin="round"/>
<path d="M6.67861 15.1786H0.607178V14.5203C0.616845 13.5946 0.860936 12.6867 1.31665 11.8811C1.77237 11.0755 2.42484 10.3985 3.21312 9.91339C4.00141 9.42829 4.89979 9.15091 5.82433 9.10713C5.90676 9.10324 5.98916 9.1012 6.07146 9.10101C6.15377 9.1012 6.23618 9.10324 6.31861 9.10713C6.64549 9.1226 6.96911 9.16729 7.28575 9.24002" stroke="black" stroke-linecap="round" stroke-linejoin="round"/>
<path d="M15.7857 10.9286H9.71432C9.37901 10.9286 9.10718 11.2004 9.10718 11.5357V15.7857C9.10718 16.121 9.37901 16.3928 9.71432 16.3928H15.7857C16.121 16.3928 16.3929 16.121 16.3929 15.7857V11.5357C16.3929 11.2004 16.121 10.9286 15.7857 10.9286Z" stroke="black" stroke-linecap="round" stroke-linejoin="round"/>
<path d="M10.3214 10.9286V9.71428C10.3214 9.07018 10.5773 8.45246 11.0327 7.99702C11.4882 7.54157 12.1059 7.28571 12.75 7.28571C13.394 7.28571 14.0117 7.54157 14.4672 7.99702C14.9227 8.45246 15.1786 9.07018 15.1786 9.71428V10.9286" stroke="black" stroke-linecap="round" stroke-linejoin="round"/>
</g>
<defs>
<clipPath id="clip0_4_49">
<rect width="17" height="17" fill="white"/>
</clipPath>
</defs>
</svg>
