<svg width="19" height="19" viewBox="0 0 19 19" fill="none" xmlns="http://www.w3.org/2000/svg">
<g clip-path="url(#clip0_4_45)">
<path d="M6.10713 4.74998V2.0357C6.10713 1.67578 6.25011 1.33052 6.50462 1.07606C6.75914 0.821596 7.10433 0.678553 7.46427 0.678553L16.9643 0.678553C17.3242 0.678553 17.6694 0.821596 17.9239 1.07606C18.1784 1.33052 18.3214 1.67578 18.3214 2.0357L18.3214 16.9643C18.3214 17.3242 18.1784 17.6694 17.9239 17.9239C17.6694 18.1784 17.3242 18.3214 16.9643 18.3214L7.46427 18.3214C7.10433 18.3214 6.75914 18.1784 6.50462 17.9239C6.25011 17.6694 6.10713 17.3242 6.10713 16.9643V14.25" stroke="white" stroke-linecap="round" stroke-linejoin="round"/>
<path d="M0.678622 9.5L11.5358 9.5" stroke="white" stroke-linecap="round" stroke-linejoin="round"/>
<path d="M8.82148 12.2143L11.5358 9.50001L8.82148 6.78572" stroke="white" stroke-linecap="round" stroke-linejoin="round"/>
</g>
<defs>
<clipPath id="clip0_4_45">
<rect width="19" height="19" fill="white" transform="matrix(-1 0 0 -1 19 19)"/>
</clipPath>
</defs>
</svg>
